<svg width="110" height="25" viewBox="0 0 110 25" fill="none" xmlns="http://www.w3.org/2000/svg">
<rect y="0.043457" width="23.5" height="22.9565" rx="3.37736" fill="url(#paint0_linear_56_13)"/>
<g filter="url(#filter0_i_56_13)">
<path d="M13.6291 7.89524V19H11.785V17.3586C11.4338 17.926 10.9407 18.3718 10.3057 18.696C9.6843 19.0068 8.99532 19.1621 8.23879 19.1621C7.37419 19.1621 6.5974 18.9865 5.90841 18.6352C5.21943 18.2705 4.6723 17.7301 4.26702 17.0141C3.87524 16.2981 3.67936 15.4268 3.67936 14.4V7.89524H5.50313V14.1569C5.50313 15.2511 5.78007 16.0955 6.33396 16.6899C6.88785 17.2708 7.64438 17.5612 8.60355 17.5612C9.58974 17.5612 10.3665 17.2573 10.9339 16.6494C11.5013 16.0414 11.785 15.1566 11.785 13.9948V7.89524H13.6291ZM17.695 6.09173C17.3438 6.09173 17.0466 5.97014 16.8034 5.72697C16.5602 5.4838 16.4387 5.1866 16.4387 4.83535C16.4387 4.4841 16.5602 4.1869 16.8034 3.94373C17.0466 3.70056 17.3438 3.57897 17.695 3.57897C18.0328 3.57897 18.3165 3.70056 18.5461 3.94373C18.7893 4.1869 18.9109 4.4841 18.9109 4.83535C18.9109 5.1866 18.7893 5.4838 18.5461 5.72697C18.3165 5.97014 18.0328 6.09173 17.695 6.09173ZM18.5867 7.89524V19H16.7426V7.89524H18.5867Z" fill="white"/>
</g>
<path d="M32.8103 9.96218C33.1885 9.30022 33.7424 8.75984 34.4719 8.34105C35.2014 7.92226 36.0323 7.71286 36.9644 7.71286C37.9641 7.71286 38.8625 7.94928 39.6596 8.42211C40.4566 8.89494 41.0848 9.56365 41.5441 10.4283C42.0034 11.2794 42.2331 12.2723 42.2331 13.4071C42.2331 14.5284 42.0034 15.5281 41.5441 16.4062C41.0848 17.2843 40.4499 17.9665 39.6393 18.4529C38.8422 18.9392 37.9506 19.1824 36.9644 19.1824C36.0052 19.1824 35.1609 18.973 34.4314 18.5542C33.7154 18.1354 33.175 17.6018 32.8103 16.9533V19H30.9662V4.00452H32.8103V9.96218ZM40.3485 13.4071C40.3485 12.5695 40.1797 11.84 39.8419 11.2186C39.5042 10.5971 39.0449 10.1243 38.464 9.80007C37.8966 9.47584 37.2684 9.31373 36.5794 9.31373C35.9039 9.31373 35.2757 9.4826 34.6948 9.82033C34.1274 10.1446 33.6681 10.6241 33.3169 11.2591C32.9791 11.8805 32.8103 12.6033 32.8103 13.4274C32.8103 14.2649 32.9791 15.0012 33.3169 15.6361C33.6681 16.2576 34.1274 16.7372 34.6948 17.0749C35.2757 17.3991 35.9039 17.5612 36.5794 17.5612C37.2684 17.5612 37.8966 17.3991 38.464 17.0749C39.0449 16.7372 39.5042 16.2576 39.8419 15.6361C40.1797 15.0012 40.3485 14.2582 40.3485 13.4071ZM45.6128 6.09173C45.2615 6.09173 44.9643 5.97014 44.7212 5.72697C44.478 5.4838 44.3564 5.1866 44.3564 4.83535C44.3564 4.4841 44.478 4.1869 44.7212 3.94373C44.9643 3.70056 45.2615 3.57897 45.6128 3.57897C45.9505 3.57897 46.2342 3.70056 46.4639 3.94373C46.707 4.1869 46.8286 4.4841 46.8286 4.83535C46.8286 5.1866 46.707 5.4838 46.4639 5.72697C46.2342 5.97014 45.9505 6.09173 45.6128 6.09173ZM46.5044 7.89524V19H44.6604V7.89524H46.5044ZM51.8966 9.41505V15.9604C51.8966 16.5008 52.0114 16.8858 52.2411 17.1154C52.4707 17.3316 52.8693 17.4397 53.4366 17.4397H54.7943V19H53.1327C52.106 19 51.3359 18.7636 50.8226 18.2908C50.3092 17.8179 50.0525 17.0411 50.0525 15.9604V9.41505H48.6138V7.89524H50.0525V5.09878H51.8966V7.89524H54.7943V9.41505H51.8966ZM61.6083 7.71286C62.5675 7.71286 63.4051 7.92226 64.1211 8.34105C64.8506 8.75984 65.391 9.28671 65.7422 9.92166V7.89524H67.6065V19.2432C67.6065 20.2564 67.3904 21.1548 66.9581 21.9383C66.5258 22.7354 65.9043 23.3568 65.0938 23.8026C64.2967 24.2484 63.3646 24.4713 62.2973 24.4713C60.8383 24.4713 59.6224 24.1268 58.6498 23.4379C57.6771 22.7489 57.1029 21.81 56.9273 20.6211H58.7511C58.9537 21.2966 59.3725 21.837 60.0075 22.2423C60.6424 22.6611 61.4057 22.8705 62.2973 22.8705C63.3105 22.8705 64.1346 22.553 64.7695 21.918C65.418 21.2831 65.7422 20.3915 65.7422 19.2432V16.9128C65.3775 17.5612 64.8371 18.1016 64.1211 18.5339C63.4051 18.9662 62.5675 19.1824 61.6083 19.1824C60.6221 19.1824 59.7238 18.9392 58.9132 18.4529C58.1161 17.9665 57.4879 17.2843 57.0286 16.4062C56.5693 15.5281 56.3396 14.5284 56.3396 13.4071C56.3396 12.2723 56.5693 11.2794 57.0286 10.4283C57.4879 9.56365 58.1161 8.89494 58.9132 8.42211C59.7238 7.94928 60.6221 7.71286 61.6083 7.71286ZM65.7422 13.4274C65.7422 12.5898 65.5733 11.8603 65.2356 11.2388C64.8979 10.6174 64.4386 10.1446 63.8577 9.82033C63.2903 9.4826 62.6621 9.31373 61.9731 9.31373C61.2841 9.31373 60.6559 9.47584 60.0885 9.80007C59.5211 10.1243 59.0686 10.5971 58.7308 11.2186C58.3931 11.84 58.2242 12.5695 58.2242 13.4071C58.2242 14.2582 58.3931 15.0012 58.7308 15.6361C59.0686 16.2576 59.5211 16.7372 60.0885 17.0749C60.6559 17.3991 61.2841 17.5612 61.9731 17.5612C62.6621 17.5612 63.2903 17.3991 63.8577 17.0749C64.4386 16.7372 64.8979 16.2576 65.2356 15.6361C65.5733 15.0012 65.7422 14.2649 65.7422 13.4274ZM72.5668 4.00452V19H70.7228V4.00452H72.5668ZM75.0207 13.4071C75.0207 12.2723 75.2503 11.2794 75.7097 10.4283C76.169 9.56365 76.7972 8.89494 77.5942 8.42211C78.4048 7.94928 79.3032 7.71286 80.2894 7.71286C81.262 7.71286 82.1064 7.92226 82.8224 8.34105C83.5384 8.75984 84.072 9.28671 84.4232 9.92166V7.89524H86.2875V19H84.4232V16.9331C84.0585 17.5815 83.5114 18.1219 82.7818 18.5542C82.0658 18.973 81.2283 19.1824 80.2691 19.1824C79.2829 19.1824 78.3913 18.9392 77.5942 18.4529C76.7972 17.9665 76.169 17.2843 75.7097 16.4062C75.2503 15.5281 75.0207 14.5284 75.0207 13.4071ZM84.4232 13.4274C84.4232 12.5898 84.2544 11.8603 83.9166 11.2388C83.5789 10.6174 83.1196 10.1446 82.5387 9.82033C81.9713 9.4826 81.3431 9.31373 80.6541 9.31373C79.9651 9.31373 79.3369 9.47584 78.7695 9.80007C78.2021 10.1243 77.7496 10.5971 77.4118 11.2186C77.0741 11.84 76.9052 12.5695 76.9052 13.4071C76.9052 14.2582 77.0741 15.0012 77.4118 15.6361C77.7496 16.2576 78.2021 16.7372 78.7695 17.0749C79.3369 17.3991 79.9651 17.5612 80.6541 17.5612C81.3431 17.5612 81.9713 17.3991 82.5387 17.0749C83.1196 16.7372 83.5789 16.2576 83.9166 15.6361C84.2544 15.0012 84.4232 14.2649 84.4232 13.4274ZM90.7818 17.4802H96.2328V19H88.6743V17.4802L94.0646 9.39479H88.7148V7.89524H96.1923V9.39479L90.7818 17.4802ZM108.758 13.0221C108.758 13.3733 108.737 13.7448 108.697 14.1366H99.8212C99.8887 15.2309 100.26 16.0887 100.936 16.7101C101.625 17.3181 102.455 17.622 103.428 17.622C104.225 17.622 104.887 17.4397 105.414 17.0749C105.954 16.6966 106.333 16.1968 106.549 15.5754H108.535C108.238 16.6426 107.643 17.514 106.752 18.1894C105.86 18.8514 104.752 19.1824 103.428 19.1824C102.374 19.1824 101.429 18.946 100.591 18.4731C99.7671 18.0003 99.1187 17.3316 98.6458 16.467C98.173 15.5889 97.9366 14.5757 97.9366 13.4274C97.9366 12.2791 98.1663 11.2726 98.6256 10.408C99.0849 9.54339 99.7266 8.88143 100.551 8.42211C101.388 7.94928 102.347 7.71286 103.428 7.71286C104.482 7.71286 105.414 7.94252 106.225 8.40184C107.035 8.86116 107.657 9.49611 108.089 10.3067C108.535 11.1037 108.758 12.0089 108.758 13.0221ZM106.853 12.6371C106.853 11.9346 106.697 11.3334 106.387 10.8335C106.076 10.3202 105.65 9.93516 105.11 9.67849C104.583 9.4083 103.996 9.2732 103.347 9.2732C102.415 9.2732 101.618 9.57041 100.956 10.1648C100.307 10.7592 99.936 11.5833 99.8414 12.6371H106.853Z" fill="white"/>
<defs>
<filter id="filter0_i_56_13" x="3.67932" y="3.57898" width="15.513" height="15.8646" filterUnits="userSpaceOnUse" color-interpolation-filters="sRGB">
<feFlood flood-opacity="0" result="BackgroundImageFix"/>
<feBlend mode="normal" in="SourceGraphic" in2="BackgroundImageFix" result="shape"/>
<feColorMatrix in="SourceAlpha" type="matrix" values="0 0 0 0 0 0 0 0 0 0 0 0 0 0 0 0 0 0 127 0" result="hardAlpha"/>
<feOffset dx="0.281447" dy="0.42217"/>
<feGaussianBlur stdDeviation="0.140723"/>
<feComposite in2="hardAlpha" operator="arithmetic" k2="-1" k3="1"/>
<feColorMatrix type="matrix" values="0 0 0 0 0 0 0 0 0 0 0 0 0 0 0 0 0 0 0.25 0"/>
<feBlend mode="normal" in2="shape" result="effect1_innerShadow_56_13"/>
</filter>
<linearGradient id="paint0_linear_56_13" x1="1.36731" y1="0.832588" x2="21.0282" y2="23.0109" gradientUnits="userSpaceOnUse">
<stop stop-color="#FF0057"/>
<stop offset="1" stop-color="#D90075"/>
</linearGradient>
</defs>
</svg>
